<svg xmlns="http://www.w3.org/2000/svg" width="125.366" height="11.97" viewBox="0 0 125.366 11.97">
  <g id="Grupo_15" data-name="Grupo 15" transform="translate(-896.817 -3139.457)">
    <path id="Caminho_1" data-name="Caminho 1" d="M6.237.45a2.344,2.344,0,0,1,.9,2.012,3.5,3.5,0,0,1-.9,2.465A4.205,4.205,0,0,1,3.712,6.235L2.2,6.466V8.81L0,9.162V.7L3.712.108A3.36,3.36,0,0,1,6.237.45ZM4.658,3.941A1.428,1.428,0,0,0,5.03,2.935a1.006,1.006,0,0,0-.372-.885,1.358,1.358,0,0,0-1.006-.171l-1.4.221V4.7l1.4-.221a1.741,1.741,0,0,0,1.006-.533Z" transform="translate(898.25 3140.119) rotate(9)" fill="#fff"/>
    <path id="Caminho_2" data-name="Caminho 2" d="M0,1.056,6.67,0v1.76L2.2,2.475V4.024L6.227,3.38v1.75L2.2,5.784V7.374L6.79,6.65V8.41L0,9.486Z" transform="translate(907.367 3139.727) rotate(9)" fill="#fff"/>
    <path id="Caminho_3" data-name="Caminho 3" d="M5.985.243a3.109,3.109,0,0,1,1.59,1.237,3.772,3.772,0,0,1,.573,2.113,4.738,4.738,0,0,1-.573,2.3,4.9,4.9,0,0,1-1.62,1.75,6.1,6.1,0,0,1-2.394.915L0,9.126V.666L3.642.083A4.6,4.6,0,0,1,5.985.244ZM4.839,6.279A2.526,2.526,0,0,0,5.6,5.273a3.018,3.018,0,0,0,.282-1.318,2.434,2.434,0,0,0-.292-1.227,1.74,1.74,0,0,0-.815-.734,2.113,2.113,0,0,0-1.187-.121L2.2,2.095V6.964l1.5-.231a2.555,2.555,0,0,0,1.107-.463Z" transform="translate(916.318 3140.124) rotate(9)" fill="#fff"/>
    <path id="Caminho_4" data-name="Caminho 4" d="M5.03,8.373,3.8,6.22h0l-1.6.251V8.816L0,9.168V.707L3.8.1A3.511,3.511,0,0,1,6.4.466a2.284,2.284,0,0,1,.925,2.012,3.751,3.751,0,0,1-.382,1.71A3.369,3.369,0,0,1,5.815,5.446L7.575,7.93ZM2.153,4.721l1.61-.252a1.771,1.771,0,0,0,1.006-.5A1.5,1.5,0,0,0,5.13,2.961a1.006,1.006,0,0,0-.362-.9A1.378,1.378,0,0,0,3.762,1.9l-1.61.252Z" transform="translate(926.46 3140.079) rotate(9)" fill="#fff"/>
    <path id="Caminho_5" data-name="Caminho 5" d="M6.953.27a3.44,3.44,0,0,1,1.64,1.3A3.813,3.813,0,0,1,9.186,3.7a4.85,4.85,0,0,1-.594,2.334,5.523,5.523,0,0,1-4.024,2.8,4.477,4.477,0,0,1-2.334-.2A3.39,3.39,0,0,1,.6,7.3,3.8,3.8,0,0,1,0,5.149,4.669,4.669,0,0,1,.6,2.836a5.453,5.453,0,0,1,1.64-1.821A5.523,5.523,0,0,1,4.569.079,4.527,4.527,0,0,1,6.953.27ZM3.472,2.453A3.017,3.017,0,0,0,2.305,4.8a2.323,2.323,0,0,0,.322,1.227,1.911,1.911,0,0,0,2.012.916,2.324,2.324,0,0,0,1.147-.513,2.908,2.908,0,0,0,.835-1.006,3.016,3.016,0,0,0,.3-1.318,2.4,2.4,0,0,0-.3-1.217,1.8,1.8,0,0,0-.835-.764,1.912,1.912,0,0,0-1.147-.141,2.515,2.515,0,0,0-1.167.493Z" transform="translate(935.421 3139.822) rotate(9)" fill="#fff"/>
    <path id="Caminho_6" data-name="Caminho 6" d="M0,1.207,2.2.855V4.306l3.42-.543V.342L7.827,0V8.39l-2.2.352V5.493L2.2,6.036V9.275L0,9.627Z" transform="translate(951.139 3139.463) rotate(9)" fill="#fff"/>
    <path id="Caminho_7" data-name="Caminho 7" d="M0,1.056,6.67,0V1.811L2.2,2.525V4.1l4.024-.644v1.75L2.2,5.865v1.6L6.79,6.73V8.5L0,9.577Z" transform="translate(961.444 3139.608) rotate(9)" fill="#fff"/>
    <path id="Caminho_8" data-name="Caminho 8" d="M5.815.332,7.827,0V8.38L5.9,8.692,2.062,4.245v5.03L0,9.607V1.147L1.941.835,5.815,5.362Z" transform="translate(970.389 3139.466) rotate(9)" fill="#fff"/>
    <path id="Caminho_9" data-name="Caminho 9" d="M5.03,8.363,3.8,6.22h0l-1.6.252V8.816L0,9.168V.707L3.8.1A3.511,3.511,0,0,1,6.4.466a2.293,2.293,0,0,1,.926,2.012,3.813,3.813,0,0,1-.382,1.71A3.451,3.451,0,0,1,5.815,5.446L7.575,7.93ZM2.153,4.711l1.61-.251a1.771,1.771,0,0,0,1.006-.5A1.478,1.478,0,0,0,5.13,2.951a1.006,1.006,0,0,0-.362-.885,1.327,1.327,0,0,0-1.006-.171l-1.61.251Z" transform="translate(980.76 3139.965) rotate(9)" fill="#fff"/>
    <path id="Caminho_10" data-name="Caminho 10" d="M0,.352,2.2,0V8.46L0,8.812Z" transform="translate(990.239 3140.308) rotate(9)" fill="#fff"/>
    <path id="Caminho_11" data-name="Caminho 11" d="M9.578,8.955a4.41,4.41,0,0,1-1.157.865,4.085,4.085,0,0,1-1.308.463,2.384,2.384,0,0,1-1.569-.251A2.736,2.736,0,0,1,4.407,8.854a4.255,4.255,0,0,1-2.253-.262A3.521,3.521,0,0,1,.575,7.264,3.873,3.873,0,0,1,0,5.142,4.7,4.7,0,0,1,.6,2.828a5.353,5.353,0,0,1,1.64-1.821A5.653,5.653,0,0,1,4.578.072a4.467,4.467,0,0,1,2.334.2,3.31,3.31,0,0,1,1.65,1.3,3.752,3.752,0,0,1,.594,2.123A4.9,4.9,0,0,1,8.411,6.3,5.371,5.371,0,0,1,6.4,8.2a1.057,1.057,0,0,0,.956.362,2.012,2.012,0,0,0,.674-.272A4.729,4.729,0,0,0,8.8,7.707ZM2.6,6.017a2.012,2.012,0,0,0,.845.775,2.072,2.072,0,0,0,1.167.151,2.474,2.474,0,0,0,1.147-.523A2.877,2.877,0,0,0,6.58,5.413a3.015,3.015,0,0,0,.3-1.318,2.4,2.4,0,0,0-.3-1.217,1.831,1.831,0,0,0-.825-.765,1.921,1.921,0,0,0-1.147-.141,2.465,2.465,0,0,0-1.167.5,3.019,3.019,0,0,0-.855,1.006A2.887,2.887,0,0,0,2.275,4.8,2.314,2.314,0,0,0,2.6,6.017Z" transform="translate(994.403 3139.734) rotate(9)" fill="#fff"/>
    <path id="Caminho_12" data-name="Caminho 12" d="M2.638,7.042a1.4,1.4,0,0,0,1.2.3A1.811,1.811,0,0,0,4.982,6.68a2.013,2.013,0,0,0,.443-1.358V.352L7.638,0V4.98a4.367,4.367,0,0,1-.463,2.012A4.024,4.024,0,0,1,5.848,8.481a5.1,5.1,0,0,1-2.012.765,4.234,4.234,0,0,1-2.012-.121A2.6,2.6,0,0,1,.475,8.058,3.33,3.33,0,0,1,0,6.207V1.237l2.2-.352V5.835a1.509,1.509,0,0,0,.432,1.207Z" transform="translate(1005.507 3139.457) rotate(9)" fill="#fff"/>
    <path id="Caminho_13" data-name="Caminho 13" d="M0,1.056,6.67,0v1.76l-4.467.7V4.054L6.227,3.41v1.75L2.2,5.815V7.4L6.79,6.68V8.44L0,9.517Z" transform="translate(1015.477 3139.61) rotate(9)" fill="#fff"/>
  </g>
</svg>
