<svg xmlns="http://www.w3.org/2000/svg" width="162" height="63.686" viewBox="0 0 162 63.686">
  <g id="logotipo_branco" data-name="logotipo branco" transform="translate(0.01 0.029)">
    <path id="Caminho_1" data-name="Caminho 1" d="M785.669,324.839a5.4,5.4,0,0,1,2.061,4.632,8.06,8.06,0,0,1-2.061,5.674,9.681,9.681,0,0,1-5.813,3.011l-3.474.533v5.4l-5.072.811V325.418l8.546-1.366a7.735,7.735,0,0,1,5.813.787Zm-3.636,8.036a3.288,3.288,0,0,0,.857-2.316,2.316,2.316,0,0,0-.857-2.038,3.127,3.127,0,0,0-2.316-.394l-3.219.509v5.975l3.219-.509a4.007,4.007,0,0,0,2.316-1.227Z" transform="translate(-771.32 -309.771)" fill="#faf172"/>
    <path id="Caminho_2" data-name="Caminho 2" d="M780.2,324.432,795.555,322v4.053L785.272,327.7v3.567l9.264-1.482v4.03l-9.264,1.505v3.659l10.561-1.667v4.053L780.2,343.839Z" transform="translate(-759.621 -312.143)" fill="#faf172"/>
    <path id="Caminho_3" data-name="Caminho 3" d="M802.83,321.559a7.157,7.157,0,0,1,3.659,2.849,8.685,8.685,0,0,1,1.32,4.863,10.91,10.91,0,0,1-1.32,5.3,11.279,11.279,0,0,1-3.729,4.03,14.038,14.038,0,0,1-5.512,2.107l-8.2,1.3V322.531l8.384-1.343a10.583,10.583,0,0,1,5.4.371Zm-2.64,13.9a5.814,5.814,0,0,0,1.76-2.316,6.95,6.95,0,0,0,.648-3.034,5.6,5.6,0,0,0-.672-2.826,4.006,4.006,0,0,0-1.876-1.691,4.863,4.863,0,0,0-2.733-.278l-3.2.51v11.209l3.451-.533a5.882,5.882,0,0,0,2.547-1.065Z" transform="translate(-747.975 -313.461)" fill="#faf172"/>
    <path id="Caminho_4" data-name="Caminho 4" d="M810.58,338.653l-2.825-4.956h0l-3.682.579v5.4l-5.072.811V321.005l8.754-1.39a8.083,8.083,0,0,1,5.975.834,5.258,5.258,0,0,1,2.131,4.632,8.637,8.637,0,0,1-.88,3.937,7.757,7.757,0,0,1-2.594,2.9l4.053,5.72Zm-6.624-8.407,3.705-.579a4.076,4.076,0,0,0,2.316-1.158,3.451,3.451,0,0,0,.833-2.316,2.316,2.316,0,0,0-.833-2.061,3.173,3.173,0,0,0-2.316-.371l-3.705.579Z" transform="translate(-734.882 -315.595)" fill="#faf172"/>
    <path id="Caminho_5" data-name="Caminho 5" d="M823.765,318.354a7.92,7.92,0,0,1,3.775,2.988,8.777,8.777,0,0,1,1.367,4.91,11.164,11.164,0,0,1-1.367,5.373,12.715,12.715,0,0,1-9.264,6.438,10.307,10.307,0,0,1-5.373-.463,7.805,7.805,0,0,1-3.775-3.057,8.752,8.752,0,0,1-1.366-4.956,10.749,10.749,0,0,1,1.366-5.327,12.554,12.554,0,0,1,3.775-4.192,12.713,12.713,0,0,1,5.373-2.154,10.423,10.423,0,0,1,5.489.44Zm-8.013,5.026a6.947,6.947,0,0,0-2.687,5.4,5.348,5.348,0,0,0,.741,2.826,4.4,4.4,0,0,0,4.632,2.108,5.35,5.35,0,0,0,2.64-1.181A6.7,6.7,0,0,0,823,330.211a6.944,6.944,0,0,0,.695-3.034,5.534,5.534,0,0,0-.695-2.8,4.144,4.144,0,0,0-1.922-1.76,4.4,4.4,0,0,0-2.64-.324,5.789,5.789,0,0,0-2.687,1.135Z" transform="translate(-723.356 -317.76)" fill="#faf172"/>
    <path id="Caminho_6" data-name="Caminho 6" d="M771.32,338.439l5.072-.811v7.944l7.874-1.251v-7.874l5.072-.787v19.315l-5.072.811v-7.481l-7.874,1.251v7.457l-5.072.811Z" transform="translate(-771.307 -294.167)" fill="#faf172"/>
    <path id="Caminho_7" data-name="Caminho 7" d="M781.46,336.632l15.355-2.432v4.169l-10.283,1.644v3.636l9.264-1.482v4.03l-9.264,1.505v3.682l10.561-1.691v4.076l-15.633,2.478Z" transform="translate(-757.963 -296.088)" fill="#faf172"/>
    <path id="Caminho_8" data-name="Caminho 8" d="M803.606,333.434l4.632-.764v19.292l-4.447.718-8.824-10.237v11.58l-4.748.764V335.31l4.47-.718,8.916,10.422Z" transform="translate(-746.436 -298.102)" fill="#faf172"/>
    <path id="Caminho_9" data-name="Caminho 9" d="M812.06,350.8l-2.825-4.933h0l-3.682.579v5.4l-5.072.811V333.175l8.754-1.39a8.082,8.082,0,0,1,5.975.834,5.28,5.28,0,0,1,2.131,4.632,8.777,8.777,0,0,1-.88,3.937,7.944,7.944,0,0,1-2.594,2.895l4.053,5.72Zm-6.624-8.407,3.705-.579a4.075,4.075,0,0,0,2.316-1.158,3.4,3.4,0,0,0,.834-2.316,2.316,2.316,0,0,0-.834-2.038,3.056,3.056,0,0,0-2.316-.394l-3.706.579Z" transform="translate(-732.934 -299.58)" fill="#faf172"/>
    <path id="Caminho_10" data-name="Caminho 10" d="M809.84,331.221l5.072-.811v19.477l-5.072.811Z" transform="translate(-720.617 -301.076)" fill="#faf172"/>
    <path id="Caminho_11" data-name="Caminho 11" d="M835.889,349.813a10.153,10.153,0,0,1-2.663,1.992,9.4,9.4,0,0,1-3.011,1.065,5.488,5.488,0,0,1-3.613-.579,6.3,6.3,0,0,1-2.617-2.71,9.8,9.8,0,0,1-5.188-.6,8.106,8.106,0,0,1-3.636-3.057,8.916,8.916,0,0,1-1.32-4.887,10.817,10.817,0,0,1,1.39-5.327,12.322,12.322,0,0,1,3.775-4.192,13.016,13.016,0,0,1,5.373-2.154,10.284,10.284,0,0,1,5.373.463,7.62,7.62,0,0,1,3.8,2.988,8.638,8.638,0,0,1,1.366,4.886,11.277,11.277,0,0,1-1.714,6,12.365,12.365,0,0,1-4.632,4.377,2.432,2.432,0,0,0,2.2.834,4.632,4.632,0,0,0,1.552-.625,10.881,10.881,0,0,0,1.783-1.343Zm-16.073-6.763a4.632,4.632,0,0,0,1.945,1.783,4.771,4.771,0,0,0,2.686.347,5.7,5.7,0,0,0,2.64-1.2,6.622,6.622,0,0,0,1.9-2.316,6.944,6.944,0,0,0,.7-3.034,5.533,5.533,0,0,0-.695-2.8,4.214,4.214,0,0,0-1.9-1.76,4.423,4.423,0,0,0-2.64-.324,5.674,5.674,0,0,0-2.687,1.158,6.952,6.952,0,0,0-1.968,2.316,6.647,6.647,0,0,0-.718,3.034,5.326,5.326,0,0,0,.741,2.8Z" transform="translate(-715.355 -302.669)" fill="#faf172"/>
    <path id="Caminho_12" data-name="Caminho 12" d="M830.771,343.412a3.219,3.219,0,0,0,2.756.695,4.168,4.168,0,0,0,2.64-1.529,4.633,4.633,0,0,0,1.019-3.127V328.011l5.1-.811v11.464a10.054,10.054,0,0,1-1.066,4.632,9.264,9.264,0,0,1-3.057,3.428,11.741,11.741,0,0,1-4.632,1.76,9.747,9.747,0,0,1-4.632-.278,5.975,5.975,0,0,1-3.1-2.455,7.667,7.667,0,0,1-1.088-4.261V330.049l5.072-.811v11.394a3.474,3.474,0,0,0,1,2.779Z" transform="translate(-701.066 -305.3)" fill="#faf172"/>
    <path id="Caminho_13" data-name="Caminho 13" d="M834.51,328.232l15.355-2.432v4.053l-10.283,1.621v3.659l9.264-1.482v4.03l-9.264,1.505v3.659l10.561-1.667v4.053l-15.633,2.478Z" transform="translate(-688.153 -307.142)" fill="#faf172"/>
  </g>
</svg>
