<svg xmlns="http://www.w3.org/2000/svg" width="1104" height="91.12" viewBox="0 0 1104 91.12">
  <g id="logotipo_branco" data-name="logotipo branco" transform="translate(0.01 0.029)">
    <path id="Caminho_1" data-name="Caminho 1" d="M784.25,324.736a4.862,4.862,0,0,1,1.857,4.174,7.263,7.263,0,0,1-1.858,5.114,8.725,8.725,0,0,1-5.239,2.713l-3.131.48v4.863l-4.571.731V325.258l7.7-1.231A6.971,6.971,0,0,1,784.25,324.736Zm-3.277,7.242a2.964,2.964,0,0,0,.772-2.087,2.087,2.087,0,0,0-.772-1.837,2.818,2.818,0,0,0-2.087-.355l-2.9.459v5.385l2.9-.459a3.611,3.611,0,0,0,2.087-1.106Z" transform="translate(-771.32 -300.026)" fill="#0f0f0f"/>
    <path id="Caminho_2" data-name="Caminho 2" d="M780.2,324.191,794.038,322v3.653l-9.267,1.482v3.214l8.349-1.336v3.632L784.771,334v3.3l9.517-1.5v3.653L780.2,341.682Z" transform="translate(-554.696 -306.232)" fill="#0f0f0f"/>
    <path id="Caminho_3" data-name="Caminho 3" d="M801.469,321.5a6.45,6.45,0,0,1,3.3,2.567,7.828,7.828,0,0,1,1.19,4.383,9.833,9.833,0,0,1-1.19,4.78,10.166,10.166,0,0,1-3.36,3.632,12.652,12.652,0,0,1-4.967,1.9l-7.388,1.169V322.38l7.555-1.211a9.537,9.537,0,0,1,4.863.334Zm-2.379,12.523a5.24,5.24,0,0,0,1.586-2.087,6.263,6.263,0,0,0,.584-2.734,5.051,5.051,0,0,0-.605-2.546,3.611,3.611,0,0,0-1.69-1.524,4.383,4.383,0,0,0-2.463-.25l-2.88.459v10.1l3.11-.48a5.3,5.3,0,0,0,2.3-.96Z" transform="translate(-477.248 -314.209)" fill="#0f0f0f"/>
    <path id="Caminho_4" data-name="Caminho 4" d="M809.436,336.749l-2.546-4.467h0l-3.319.522v4.863L799,338.4V320.845l7.889-1.252a7.284,7.284,0,0,1,5.385.751,4.738,4.738,0,0,1,1.92,4.174,7.785,7.785,0,0,1-.793,3.548,6.991,6.991,0,0,1-2.337,2.609l3.652,5.155Zm-5.969-7.576,3.339-.522a3.674,3.674,0,0,0,2.087-1.044,3.11,3.11,0,0,0,.751-2.087,2.087,2.087,0,0,0-.751-1.857,2.86,2.86,0,0,0-2.087-.334l-3.339.522Z" transform="translate(-316.239 -315.971)" fill="#0f0f0f"/>
    <path id="Caminho_5" data-name="Caminho 5" d="M822.184,318.292a7.137,7.137,0,0,1,3.4,2.692,7.91,7.91,0,0,1,1.232,4.425,10.061,10.061,0,0,1-1.232,4.842,11.459,11.459,0,0,1-8.348,5.8,9.289,9.289,0,0,1-4.842-.417,7.034,7.034,0,0,1-3.4-2.755,7.888,7.888,0,0,1-1.232-4.467,9.686,9.686,0,0,1,1.232-4.8,11.313,11.313,0,0,1,3.4-3.778,11.457,11.457,0,0,1,4.842-1.941,9.393,9.393,0,0,1,4.947.4Zm-7.222,4.529a6.261,6.261,0,0,0-2.421,4.863,4.82,4.82,0,0,0,.668,2.546,3.966,3.966,0,0,0,4.174,1.9,4.822,4.822,0,0,0,2.379-1.065,6.033,6.033,0,0,0,1.732-2.087,6.257,6.257,0,0,0,.626-2.734,4.988,4.988,0,0,0-.626-2.526,3.735,3.735,0,0,0-1.733-1.586,3.965,3.965,0,0,0-2.379-.292,5.217,5.217,0,0,0-2.421,1.023Z" transform="translate(-55.686 -317.76)" fill="#0f0f0f"/>
    <path id="Caminho_6" data-name="Caminho 6" d="M771.32,338.165l4.571-.731v7.159l7.1-1.127v-7.1l4.571-.71v17.407l-4.571.73v-6.742l-7.1,1.127V354.9l-4.571.731Z" transform="translate(-771.309 -264.542)" fill="#0f0f0f"/>
    <path id="Caminho_7" data-name="Caminho 7" d="M781.46,336.392,795.3,334.2v3.757l-9.267,1.482v3.277l8.349-1.336v3.632l-8.349,1.357v3.319l9.517-1.524v3.673L781.46,354.07Z" transform="translate(-649.436 -279.735)" fill="#0f0f0f"/>
    <path id="Caminho_8" data-name="Caminho 8" d="M802.284,333.359l4.174-.689v17.386l-4.007.647-7.952-9.225v10.436l-4.279.689V335.049l4.028-.647,8.036,9.392Z" transform="translate(-459.37 -267.793)" fill="#0f0f0f"/>
    <path id="Caminho_9" data-name="Caminho 9" d="M810.916,348.9l-2.546-4.446h0l-3.319.522v4.863l-4.571.731V333.014l7.89-1.252a7.284,7.284,0,0,1,5.385.751,4.758,4.758,0,0,1,1.92,4.174,7.911,7.911,0,0,1-.793,3.548,7.159,7.159,0,0,1-2.338,2.609L816.2,348Zm-5.969-7.576,3.339-.522a3.673,3.673,0,0,0,2.087-1.044,3.067,3.067,0,0,0,.751-2.087,2.087,2.087,0,0,0-.751-1.837,2.754,2.754,0,0,0-2.087-.355l-3.339.522Z" transform="translate(-291.915 -277.397)" fill="#0f0f0f"/>
    <path id="Caminho_10" data-name="Caminho 10" d="M809.84,331.141l4.571-.73v17.553l-4.571.731Z" transform="translate(-125.511 -281.157)" fill="#0f0f0f"/>
    <path id="Caminho_11" data-name="Caminho 11" d="M833.711,347.777a9.15,9.15,0,0,1-2.4,1.795,8.476,8.476,0,0,1-2.713.96,4.946,4.946,0,0,1-3.256-.522,5.676,5.676,0,0,1-2.359-2.442,8.829,8.829,0,0,1-4.675-.543,7.3,7.3,0,0,1-3.277-2.755,8.035,8.035,0,0,1-1.19-4.4,9.748,9.748,0,0,1,1.252-4.8,11.105,11.105,0,0,1,3.4-3.778,11.73,11.73,0,0,1,4.842-1.941,9.268,9.268,0,0,1,4.842.418,6.867,6.867,0,0,1,3.423,2.692,7.785,7.785,0,0,1,1.231,4.4,10.163,10.163,0,0,1-1.544,5.406,11.144,11.144,0,0,1-4.174,3.945,2.192,2.192,0,0,0,1.983.751,4.173,4.173,0,0,0,1.4-.564,9.8,9.8,0,0,0,1.607-1.211Zm-14.485-6.095a4.174,4.174,0,0,0,1.753,1.607,4.3,4.3,0,0,0,2.421.313,5.133,5.133,0,0,0,2.38-1.085,5.968,5.968,0,0,0,1.711-2.087,6.257,6.257,0,0,0,.626-2.734,4.986,4.986,0,0,0-.626-2.525,3.8,3.8,0,0,0-1.711-1.586,3.986,3.986,0,0,0-2.379-.292,5.114,5.114,0,0,0-2.421,1.044,6.265,6.265,0,0,0-1.774,2.087,5.99,5.99,0,0,0-.647,2.734,4.8,4.8,0,0,0,.668,2.526Z" transform="translate(24.19 -282.858)" fill="#0f0f0f"/>
    <path id="Caminho_12" data-name="Caminho 12" d="M830.171,341.81a2.9,2.9,0,0,0,2.484.626,3.756,3.756,0,0,0,2.379-1.378,4.175,4.175,0,0,0,.919-2.818V327.93l4.592-.731v10.331a9.061,9.061,0,0,1-.96,4.174,8.349,8.349,0,0,1-2.755,3.089,10.582,10.582,0,0,1-4.174,1.586,8.785,8.785,0,0,1-4.174-.25,5.385,5.385,0,0,1-2.8-2.212,6.91,6.91,0,0,1-.981-3.84V329.767l4.571-.731v10.269a3.131,3.131,0,0,0,.9,2.5Z" transform="translate(169.344 -303.994)" fill="#0f0f0f"/>
    <path id="Caminho_13" data-name="Caminho 13" d="M834.51,327.992l13.838-2.191v3.652l-9.267,1.461v3.3l8.349-1.336v3.632l-8.349,1.357v3.3l9.517-1.5v3.653l-14.088,2.233Z" transform="translate(255.392 -293.902)" fill="#0f0f0f"/>
  </g>
</svg>
