<svg xmlns="http://www.w3.org/2000/svg" width="50.119" height="453.981" viewBox="0 0 50.119 453.981"><g transform="translate(0 438.994) rotate(-90)"><path d="M8.183.591A3.075,3.075,0,0,1,9.358,3.23,4.593,4.593,0,0,1,8.183,6.464,5.517,5.517,0,0,1,4.87,8.18l-1.98.3v3.075L0,12.021V.921L4.87.142A4.408,4.408,0,0,1,8.183.59ZM6.111,5.17A1.873,1.873,0,0,0,6.6,3.851a1.32,1.32,0,0,0-.488-1.161,1.782,1.782,0,0,0-1.32-.224l-1.835.29V6.16l1.835-.29a2.283,2.283,0,0,0,1.32-.7Z" transform="translate(0 12.577)" fill="#110ad6"/><path d="M0,1.386,8.751,0V2.31l-5.86.937V5.279l5.28-.845v2.3l-5.28.858V9.675l6.019-.95v2.31L0,12.446Z" transform="translate(88.91 8.33)" fill="#110ad6"/><path d="M7.853.32A4.078,4.078,0,0,1,9.938,1.943a4.948,4.948,0,0,1,.753,2.772,6.218,6.218,0,0,1-.753,3.022,6.425,6.425,0,0,1-2.125,2.3,8,8,0,0,1-3.141,1.2L0,11.974V.874L4.778.108A6.032,6.032,0,0,1,7.853.32Zm-1.5,7.919a3.315,3.315,0,0,0,1-1.32A3.963,3.963,0,0,0,7.721,5.19a3.193,3.193,0,0,0-.383-1.61A2.284,2.284,0,0,0,6.27,2.616a2.773,2.773,0,0,0-1.558-.158l-1.821.29V9.136l1.967-.3a3.35,3.35,0,0,0,1.452-.607Z" transform="translate(132.85 4.312)" fill="#110ad6"/><path d="M6.6,10.986,4.989,8.161h0l-2.1.33v3.075L0,12.028V.928L4.989.136A4.606,4.606,0,0,1,8.394.611a3,3,0,0,1,1.214,2.64,4.921,4.921,0,0,1-.5,2.244,4.423,4.423,0,0,1-1.478,1.65l2.31,3.26ZM2.824,6.195l2.112-.33a2.323,2.323,0,0,0,1.32-.66,1.967,1.967,0,0,0,.475-1.32A1.32,1.32,0,0,0,6.256,2.71,1.808,1.808,0,0,0,4.936,2.5l-2.112.33Z" transform="translate(190.332 2.172)" fill="#110ad6"/><path d="M9.122.355a4.514,4.514,0,0,1,2.151,1.7,5,5,0,0,1,.779,2.8,6.36,6.36,0,0,1-.779,3.062,7.246,7.246,0,0,1-5.279,3.669,5.875,5.875,0,0,1-3.062-.264A4.449,4.449,0,0,1,.781,9.581,4.988,4.988,0,0,1,0,6.756,6.126,6.126,0,0,1,.781,3.72,7.156,7.156,0,0,1,2.932,1.331,7.246,7.246,0,0,1,5.994.1,5.941,5.941,0,0,1,9.123.355ZM4.556,3.219A3.959,3.959,0,0,0,3.025,6.294,3.049,3.049,0,0,0,3.447,7.9a2.508,2.508,0,0,0,2.64,1.2,3.048,3.048,0,0,0,1.5-.673,3.815,3.815,0,0,0,1.1-1.32,3.959,3.959,0,0,0,.4-1.729,3.156,3.156,0,0,0-.4-1.6,2.362,2.362,0,0,0-1.1-1,2.508,2.508,0,0,0-1.5-.185,3.3,3.3,0,0,0-1.531.647Z" transform="translate(295.956)" fill="#110ad6"/><path d="M0,1.584l2.89-.462V5.649l4.488-.713V.449L10.268,0V11.008l-2.89.462V7.207L2.89,7.919v4.25L0,12.631Z" transform="translate(-14.987 37.488)" fill="#110ad6"/><path d="M0,1.386,8.751,0V2.376l-5.86.937V5.385L8.17,4.54v2.3l-5.279.858v2.1L8.909,8.83v2.323L0,12.565Z" transform="translate(117.495 28.722)" fill="#110ad6"/><path d="M7.629.436,10.268,0V10.994L7.734,11.4,2.706,5.57v6.6L0,12.6V1.5L2.547,1.1,7.629,7.035Z" transform="translate(155.404 33.542)" fill="#110ad6"/><path d="M6.6,10.972,4.989,8.161h0l-2.1.33v3.075L0,12.028V.928L4.989.136A4.606,4.606,0,0,1,8.394.611a3.01,3.01,0,0,1,1.214,2.64,5,5,0,0,1-.5,2.244,4.527,4.527,0,0,1-1.478,1.65l2.31,3.26ZM2.824,6.181l2.112-.33a2.321,2.321,0,0,0,1.32-.66,1.939,1.939,0,0,0,.475-1.32A1.32,1.32,0,0,0,6.256,2.71a1.741,1.741,0,0,0-1.32-.224l-2.112.33Z" transform="translate(200.505 28.623)" fill="#110ad6"/><path d="M0,.462,2.89,0V11.1L0,11.562Z" transform="translate(271.453 26.088)" fill="#110ad6"/><path d="M12.567,11.748a5.782,5.782,0,0,1-1.518,1.135,5.356,5.356,0,0,1-1.716.607,3.128,3.128,0,0,1-2.059-.33,3.589,3.589,0,0,1-1.491-1.544,5.585,5.585,0,0,1-2.957-.343A4.619,4.619,0,0,1,.754,9.531,5.083,5.083,0,0,1,0,6.746,6.164,6.164,0,0,1,.793,3.71,7.019,7.019,0,0,1,2.945,1.321,7.417,7.417,0,0,1,6.007.094,5.859,5.859,0,0,1,9.069.358a4.343,4.343,0,0,1,2.165,1.7,4.925,4.925,0,0,1,.779,2.785,6.431,6.431,0,0,1-.977,3.419A7.047,7.047,0,0,1,8.4,10.759a1.386,1.386,0,0,0,1.254.475,2.636,2.636,0,0,0,.884-.356,6.2,6.2,0,0,0,1.016-.766ZM3.407,7.894A2.64,2.64,0,0,0,4.515,8.911a2.721,2.721,0,0,0,1.531.2,3.247,3.247,0,0,0,1.5-.686A3.776,3.776,0,0,0,8.633,7.1a3.956,3.956,0,0,0,.4-1.729,3.155,3.155,0,0,0-.4-1.6,2.4,2.4,0,0,0-1.082-1,2.521,2.521,0,0,0-1.5-.185,3.236,3.236,0,0,0-1.531.66,3.963,3.963,0,0,0-1.122,1.32A3.787,3.787,0,0,0,2.984,6.3,3.036,3.036,0,0,0,3.407,7.894Z" transform="translate(329.632 24.332)" fill="#110ad6"/><path d="M3.462,9.239a1.835,1.835,0,0,0,1.571.4,2.375,2.375,0,0,0,1.5-.871,2.64,2.64,0,0,0,.581-1.782V.462L10.022,0V6.533a5.728,5.728,0,0,1-.607,2.64,5.28,5.28,0,0,1-1.742,1.953,6.693,6.693,0,0,1-2.64,1,5.554,5.554,0,0,1-2.64-.158,3.4,3.4,0,0,1-1.769-1.4A4.37,4.37,0,0,1,0,8.144V1.624l2.891-.462V7.655a1.98,1.98,0,0,0,.568,1.584Z" transform="translate(369.466 12.265)" fill="#110ad6"/><path d="M0,1.386,8.75,0V2.31l-5.86.924V5.319L8.17,4.474v2.3l-5.279.858V9.714l6.018-.95v2.31L0,12.486Z" transform="translate(430.085 16.833)" fill="#110ad6"/></g></svg>